<svg width="22" height="22" viewBox="0 0 22 22" fill="none" xmlns="http://www.w3.org/2000/svg">
<path fill-rule="evenodd" clip-rule="evenodd" d="M11 0C9.47221 0 8.04949 0.286455 6.73177 0.859375C5.39496 1.4323 4.22527 2.22005 3.22266 3.22266C2.22005 4.22527 1.43229 5.39496 0.859375 6.73177C0.286455 8.04949 0 9.47221 0 11C0 12.5278 0.286455 13.9505 0.859375 15.2682C1.43229 16.605 2.22005 17.7747 3.22266 18.7773C4.22527 19.78 5.39496 20.5677 6.73177 21.1406C8.04949 21.7135 9.47221 22 11 22C11.3628 22 11.7257 21.9809 12.0885 21.9427C12.4514 21.9045 12.8142 21.8568 13.1771 21.7995C13.0243 21.7231 12.9431 21.4844 12.9336 21.0833C12.924 20.6823 12.9957 20.3385 13.1484 20.0521C13.3012 19.7274 13.5113 19.2452 13.7786 18.6055C14.046 17.9657 13.941 17.5122 13.4635 17.2448C12.9861 16.9583 12.7235 16.7244 12.6758 16.543C12.628 16.3615 12.4609 16.1181 12.1745 15.8125C11.8689 15.4878 11.7305 15.2778 11.7591 15.1823C11.7878 15.0868 11.7925 15.0009 11.7734 14.9245C11.7161 14.638 11.8021 14.3277 12.0312 13.9935C12.2604 13.6593 12.375 13.4731 12.375 13.4349C12.3941 13.3967 12.4036 13.3155 12.4036 13.1914C12.4036 13.0673 12.4036 12.9766 12.4036 12.9193C12.4036 12.8811 12.3273 12.8142 12.1745 12.7188C12.0217 12.6233 11.9167 12.566 11.8594 12.5469C11.8021 12.5469 11.7543 12.5755 11.7161 12.6328C11.678 12.6901 11.6207 12.7283 11.5443 12.7474C11.4679 12.7474 11.3103 12.6758 11.0716 12.5326C10.8329 12.3893 10.6753 12.2891 10.599 12.2318C10.5226 12.1745 10.4605 12.0933 10.4128 11.9883C10.365 11.8832 10.2934 11.783 10.1979 11.6875C10.1024 11.592 10.0308 11.5538 9.98307 11.5729C9.93533 11.592 9.83507 11.5729 9.68229 11.5156C9.52951 11.4583 9.25261 11.3533 8.85156 11.2005C8.45052 11.0477 8.05903 10.895 7.67708 10.7422C7.31423 10.5894 7.08984 10.4175 7.00391 10.2266C6.91797 10.0356 6.875 9.86372 6.875 9.71094C6.8559 9.57726 6.76519 9.41016 6.60286 9.20964C6.44054 9.00911 6.31163 8.83247 6.21614 8.67969C6.10156 8.52691 6.02517 8.36936 5.98698 8.20703C5.94879 8.0447 5.92014 7.98264 5.90104 8.02083C5.86285 8.07812 5.91059 8.30251 6.04427 8.69401C6.17795 9.08551 6.2257 9.28125 6.1875 9.28125C6.1493 9.30035 6.09201 9.24306 6.01562 9.10938C5.93924 8.97569 5.8533 8.84202 5.75781 8.70833C5.64323 8.55555 5.61936 8.4362 5.6862 8.35026C5.75304 8.26432 5.62414 7.88716 5.29948 7.21875C4.95573 6.55034 4.90321 6.01085 5.14193 5.60026C5.38064 5.18967 5.50955 4.8125 5.52864 4.46875C5.56684 4.125 5.66233 4.06293 5.81511 4.28255C5.96788 4.50217 5.97743 4.4974 5.84375 4.26823C5.71007 4.03906 5.67188 3.73828 5.72917 3.36589C5.78646 2.99349 5.75781 2.72136 5.64323 2.54948C5.54774 2.3776 5.28516 2.3967 4.85547 2.60677C4.42578 2.81684 4.21094 2.92188 4.21094 2.92188C4.23004 2.75 4.44488 2.53516 4.85547 2.27734C5.26606 2.01953 5.66232 1.75695 6.04427 1.48958C6.40712 1.22222 6.72222 1.14583 6.98958 1.26042C7.25695 1.375 7.5434 1.48004 7.84896 1.57552C8.15452 1.67101 8.33116 1.7092 8.37891 1.69011C8.42665 1.67101 8.40278 1.61371 8.30729 1.51823C8.19271 1.40364 8.19748 1.32726 8.32161 1.28906C8.44575 1.25087 8.62239 1.25087 8.85156 1.28906C9.08073 1.32726 9.26693 1.44184 9.41016 1.63281C9.55339 1.82379 9.80642 1.90972 10.1693 1.89062C10.5321 1.85243 10.6419 1.87153 10.4987 1.94792C10.3555 2.0243 10.303 2.11024 10.3411 2.20573C10.3984 2.30121 10.3746 2.36328 10.2695 2.39193C10.1645 2.42057 9.9974 2.52083 9.76823 2.69271C9.53906 2.84549 9.51997 2.96007 9.71094 3.03646C9.90191 3.11285 10.1979 3.30382 10.599 3.60938C11.0191 3.91493 11.2196 3.90539 11.2005 3.58073C11.1814 3.25607 11.1528 2.97917 11.1146 2.75C11.0764 2.53993 11.1671 2.47309 11.3867 2.54948C11.6063 2.62587 11.7161 2.66406 11.7161 2.66406C11.9835 2.83594 12.1363 2.88846 12.1745 2.82161C12.2127 2.75477 12.3273 2.75 12.5182 2.80729C12.7092 2.86458 12.9909 3.04123 13.3633 3.33724C13.7357 3.63325 13.9219 3.78125 13.9219 3.78125C13.2726 4.125 13.0386 4.34462 13.2201 4.44011C13.4015 4.53559 13.5495 4.63108 13.6641 4.72656C13.7595 4.80295 13.707 4.89844 13.5065 5.01302C13.306 5.12761 13.2057 5.18489 13.2057 5.18489C13.072 5.05121 12.9813 5.02257 12.9336 5.09896C12.8859 5.17535 12.8142 5.24219 12.7188 5.29948C12.6424 5.33767 12.6233 5.40451 12.6615 5.5C12.6997 5.59549 12.7188 5.64323 12.7188 5.64323C12.2795 5.71962 12.0551 5.92491 12.0456 6.25911C12.036 6.59332 12.0312 6.81771 12.0312 6.93229C12.0503 7.04688 11.9549 7.18533 11.7448 7.34766C11.5347 7.50998 11.3915 7.66754 11.3151 7.82031C11.2387 7.99219 11.2721 8.20703 11.4154 8.46484C11.5586 8.72266 11.5634 8.86111 11.4297 8.88021C11.296 8.9184 11.105 8.7704 10.8568 8.4362C10.6085 8.102 10.112 8.03993 9.36719 8.25C9.13802 8.30729 8.86111 8.47439 8.53646 8.7513C8.2118 9.02821 8.18316 9.43403 8.45052 9.96875C8.71789 10.4844 9.03298 10.5655 9.39583 10.2122C9.75868 9.85894 10.0165 9.72049 10.1693 9.79688C10.322 9.87326 10.3507 10.0308 10.2552 10.2695C10.1597 10.5082 10.1215 10.6372 10.1406 10.6562C10.1788 10.6562 10.3316 10.6992 10.599 10.7852C10.8663 10.8711 11.0095 11.1432 11.0286 11.6016C11.0668 12.0599 11.2865 12.3129 11.6875 12.3607C12.0885 12.4084 12.3559 12.4418 12.4896 12.4609C12.6042 12.4609 12.8142 12.3464 13.1198 12.1172C13.4254 11.888 13.6068 11.7639 13.6641 11.7448C13.7214 11.7257 13.8789 11.6732 14.1367 11.5872C14.3945 11.5013 14.7812 11.6016 15.2969 11.888C15.8125 12.1936 16.2135 12.3655 16.5 12.4036C16.7865 12.4418 17.0252 12.5278 17.2161 12.6615C17.388 12.776 17.4596 12.9336 17.431 13.1341C17.4023 13.3346 17.474 13.4731 17.6458 13.5495C17.8177 13.6259 18.1519 13.6593 18.6484 13.6497C19.145 13.6402 19.4792 13.7691 19.651 14.0365C19.8229 14.3229 19.6129 14.9579 19.0208 15.9414C18.4288 16.9249 17.9991 17.4931 17.7318 17.6458C17.4644 17.7986 17.2448 18.0182 17.0729 18.3047C16.901 18.5911 16.6814 18.849 16.4141 19.0781C16.1467 19.3073 15.8364 19.546 15.4831 19.7943C15.1298 20.0425 14.7717 20.2717 14.4089 20.4818C14.1033 20.6727 13.8932 20.9019 13.7786 21.1693C13.6641 21.4366 13.5399 21.6276 13.4062 21.7422C14.6285 21.4748 15.7648 21.0069 16.8151 20.3385C17.8655 19.6701 18.7726 18.8633 19.5365 17.918C20.3004 16.9727 20.9019 15.9175 21.3411 14.7526C21.7804 13.5686 22 12.3177 22 11C22 9.47221 21.7135 8.04949 21.1406 6.73177C20.5677 5.39496 19.78 4.22527 18.7773 3.22266C17.7747 2.22005 16.605 1.4323 15.2682 0.859375C13.9505 0.286455 12.5278 0 11 0ZM13.5781 10.3124C13.5017 10.3315 13.3728 10.3745 13.1914 10.4413C13.01 10.5081 12.7283 10.427 12.3464 10.1978C11.9644 9.96863 11.6541 9.8445 11.4154 9.82541C11.1766 9.80631 11.0382 9.78721 11 9.76811C11 9.76811 11.0048 9.73469 11.0143 9.66785C11.0239 9.60101 11.105 9.55805 11.2578 9.53895C11.6016 9.50075 11.9549 9.59624 12.3177 9.82541C12.6806 10.0546 12.9097 10.1692 13.0052 10.1692C13.1007 10.1883 13.1866 10.1692 13.263 10.1119C13.3394 10.0546 13.4635 10.0546 13.6354 10.1119C13.8073 10.1692 13.8598 10.2121 13.793 10.2408C13.7261 10.2694 13.6545 10.2933 13.5781 10.3124ZM9.96687 1.08846C9.92867 1.06936 9.93345 1.04071 9.98119 1.00252C10.0289 0.964325 10.0719 0.916582 10.1101 0.85929C10.1483 0.840194 10.1626 0.806772 10.1531 0.759029C10.1435 0.711285 10.1578 0.677867 10.196 0.658771C10.2724 0.563284 10.4443 0.49167 10.7117 0.443926C10.979 0.396183 11.0745 0.477344 10.9981 0.687415C10.9217 0.916582 10.7451 1.05026 10.4682 1.08846C10.1913 1.12665 10.0242 1.12665 9.96687 1.08846ZM11.8869 2.49219C11.7532 2.49219 11.5765 2.47309 11.3569 2.43489C11.1373 2.3967 11.0561 2.34896 11.1134 2.29167C11.3426 2.0625 11.3569 1.90972 11.1564 1.83333C10.9559 1.75694 10.7601 1.7092 10.5692 1.69011C10.3782 1.67101 10.2445 1.62326 10.1681 1.54687C10.0917 1.47049 10.1013 1.43229 10.1968 1.43229C10.2922 1.41319 10.4832 1.41319 10.7697 1.43229C11.0561 1.45139 11.228 1.48958 11.2853 1.54687C11.3617 1.58507 11.524 1.66623 11.7723 1.79036C12.0205 1.9145 12.1542 2.0243 12.1733 2.11979C12.1924 2.23437 12.1876 2.32508 12.159 2.39193C12.1304 2.45877 12.0396 2.49219 11.8869 2.49219ZM14.2351 2.40628C14.1205 2.50176 13.8675 2.41583 13.476 2.14847C13.0845 1.8811 12.8315 1.70923 12.7169 1.63284C12.2777 1.2318 11.9291 1.03605 11.6713 1.0456C11.4135 1.05515 11.2369 1.03128 11.1414 0.973986C11.0459 0.916694 11.0172 0.840306 11.0554 0.744819C11.0936 0.649332 11.1796 0.5443 11.3132 0.429717C11.466 0.296034 11.7095 0.276938 12.0437 0.372421C12.3779 0.467909 12.6596 0.5252 12.8888 0.5443C13.137 0.582492 13.371 0.682753 13.5906 0.84508C13.8102 1.00741 13.92 1.1936 13.92 1.40367C13.9391 1.63284 14.0203 1.83813 14.1635 2.01956C14.3067 2.20098 14.3306 2.32989 14.2351 2.40628Z" fill="#9FA7AD"/>
</svg>
